# xmcd CD database file
#
# Track frame offsets:
#	183
#	22055
#	39475
#	57903
#	77075
#	102773
#	118170
#	134330
#	153980
#	179220
#	205753
#	222040
#	239808
#
# Disc length: 3572 seconds
#
# Revision: 0
# Processed by: cddbd v1.5.2PL0 Copyright (c) Steve Scherf et al.
# Submitted via: CDex 1.70beta2
#
DISCID=bc0df20d
DTITLE=Billie Holiday - The Best of Billie Holiday
DYEAR=1997
DGENRE=Jazz
TTITLE0=Sophisticated Lady
TTITLE1=Nice Work If You Can Get It
TTITLE2=I Hadn't Anyone Till You
TTITLE3=Do Nothin' Till You Hear From Me
TTITLE4=I Get A Kick Out Of You
TTITLE5=Gone With The Wind
TTITLE6=A Fine Romance
TTITLE7=Please Don't Talk About Me When I'm Gone
TTITLE8=Prelude To A Kiss
TTITLE9=I Gotta Right To Sing The Blues
TTITLE10=Cheek To Cheek
TTITLE11=I Don't Want To Cry Anymore
TTITLE12=Ill Wind
EXTD=YEAR: 1997
EXTT0=
EXTT1=
EXTT2=
EXTT3=
EXTT4=
EXTT5=
EXTT6=
EXTT7=
EXTT8=
EXTT9=
EXTT10=
EXTT11=
EXTT12=
PLAYORDER=
